# xmcd CD database file
#
# Track frame offsets:
#	150
#	23610
#	47482
#	63665
#	79587
#	98720
#	117910
#	133690
#	151635
#	170085
#
# Disc length: 2522 seconds
#
# Revision: 80
# Processed by: cddbd v1.5.2PL0 Copyright (c) Steve Scherf et al.
# Submitted via: CDex 2.23
#
DISCID=7409d80a
DTITLE=AC-DC - Back in Black
DYEAR=1980
DGENRE=Hard Rock
TTITLE0=Hells Bells
TTITLE1=Shoot To Thrill
TTITLE2=What Do You Do For Money Honey
TTITLE3=Given The Dog A Bone
TTITLE4=Let Me Put My Love Into You
TTITLE5=Back In Black
TTITLE6=You Shook Me All Night Long
TTITLE7=Have A Drink On Me
TTITLE8=Shake A Leg
TTITLE9=Rock And Roll Ain't Noise Pollution
EXTD=YEAR: 1980
EXTT0=
EXTT1=
EXTT2=
EXTT3=
EXTT4=
EXTT5=
EXTT6=
EXTT7=
EXTT8=
EXTT9=
PLAYORDER=
